# xmcd
#
# Track frame offsets:
#	150
#	26050
#	54435
#	75757
#	93872
#	116247
#	137922
#	164927
#	185012
#	212800
#	237582
#	265952
#	291157
#
# Disc length: 4263 seconds
#
# Revision: 0
# Processed by: cddbd v1.4PL0 Copyright (c) Steve Scherf et al.
# Submitted via: EZCDDA 4.3.3.2
#
DISCID=c310a50d
DTITLE=Aron Burton - Live
DYEAR=1900
DGENRE=
TTITLE0=Found My Baby Gone
TTITLE1=Little Red Rooster
TTITLE2=Ah'w Baby
TTITLE3=Evenin' Sun Goin' Down
TTITLE4=Fever
TTITLE5=Hound Dog
TTITLE6=Cold, Cold Feeling
TTITLE7=I'm Just A Natural Man
TTITLE8=The River's Invitation
TTITLE9=Hoochie Coochie Man
TTITLE10=Snatch It Back And Hold It
TTITLE11=The Blues Is To Me
TTITLE12=Two Way Street
EXTD=
EXTT0=
EXTT1=
EXTT2=
EXTT3=
EXTT4=
EXTT5=
EXTT6=
EXTT7=
EXTT8=
EXTT9=
EXTT10=
EXTT11=
EXTT12=
PLAYORDER=
